ffmpeg started on 2016-12-02 at 15:09:27
Report written to "Output/x264/results/ffmpeg/old_town_cross_2160p50veryslow3500k.log"
Command line:
Tools/ffmpeg/ffmpeg -benchmark -y -i Input/y4m/old_town_cross_2160p50.y4m -c:v libx264 -preset veryslow -b:v 3500k -an Output/x264/encoded/old_town_cross_2160p50veryslow3500k.mkv
ffmpeg version N-82227-gdb23fde Copyright (c) 2000-2016 the FFmpeg developers
  built with gcc 5.4.0 (Ubuntu 5.4.0-6ubuntu1~16.04.2) 20160609
  configuration: --prefix=/home/jaroslav/ffmpeg_build --pkg-config-flags=--static --extra-cflags=-I/home/jaroslav/ffmpeg_build/include --extra-ldflags=-L/home/jaroslav/ffmpeg_build/lib --bindir=/home/jaroslav/bin --enable-gpl --enable-libass --enable-libfdk-aac --enable-libfreetype --enable-libmp3lame --enable-libopus --enable-libtheora --enable-libvorbis --enable-libvpx --enable-libx264 --enable-libx265 --enable-nvenc --enable-libmfx --enable-libxvid --enable-libgsm --enable-libopencore-amrnb --enable-version3 --enable-nonfree
  libavutil      55. 35.100 / 55. 35.100
  libavcodec     57. 66.101 / 57. 66.101
  libavformat    57. 57.100 / 57. 57.100
  libavdevice    57.  2.100 / 57.  2.100
  libavfilter     6. 66.100 /  6. 66.100
  libswscale      4.  3.100 /  4.  3.100
  libswresample   2.  4.100 /  2.  4.100
  libpostproc    54.  2.100 / 54.  2.100
Input #0, yuv4mpegpipe, from 'Input/y4m/old_town_cross_2160p50.y4m':
  Duration: 00:00:10.00, start: 0.000000, bitrate: 4976642 kb/s
    Stream #0:0: Video: rawvideo (I420 / 0x30323449), yuv420p(progressive), 3840x2160, SAR 1:1 DAR 16:9, 50 fps, 50 tbr, 50 tbn, 50 tbc
[libx264 @ 0x2e5c120] using SAR=1/1
[libx264 @ 0x2e5c120] DPB size (16 frames, 518400 mbs) > level limit (5 frames, 184320 mbs)
[libx264 @ 0x2e5c120] using cpu capabilities: MMX2 SSE2Fast SSSE3 SSE4.2 AVX FMA3 AVX2 LZCNT BMI2
[libx264 @ 0x2e5c120] profile High, level 5.2
[libx264 @ 0x2e5c120] 264 - core 148 - H.264/MPEG-4 AVC codec - Copyleft 2003-2016 - http://www.videolan.org/x264.html - options: cabac=1 ref=16 deblock=1:0:0 analyse=0x3:0x133 me=umh subme=10 psy=1 psy_rd=1.00:0.00 mixed_ref=1 me_range=24 chroma_me=1 trellis=2 8x8dct=1 cqm=0 deadzone=21,11 fast_pskip=1 chroma_qp_offset=-2 threads=6 lookahead_threads=1 sliced_threads=0 nr=0 decimate=1 interlaced=0 bluray_compat=0 constrained_intra=0 bframes=8 b_pyramid=2 b_adapt=2 b_bias=0 direct=3 weightb=1 open_gop=0 weightp=2 keyint=250 keyint_min=25 scenecut=40 intra_refresh=0 rc_lookahead=60 rc=abr mbtree=1 bitrate=3500 ratetol=1.0 qcomp=0.60 qpmin=0 qpmax=69 qpstep=4 ip_ratio=1.40 aq=1:1.00
Output #0, matroska, to 'Output/x264/encoded/old_town_cross_2160p50veryslow3500k.mkv':
  Metadata:
    encoder         : Lavf57.57.100
    Stream #0:0: Video: h264 (libx264) (H264 / 0x34363248), yuv420p, 3840x2160 [SAR 1:1 DAR 16:9], q=-1--1, 3500 kb/s, 50 fps, 1k tbn, 50 tbc
    Metadata:
      encoder         : Lavc57.66.101 libx264
    Side data:
      cpb: bitrate max/min/avg: 0/0/3500000 buffer size: 0 vbv_delay: -1
Stream mapping:
  Stream #0:0 -> #0:0 (rawvideo (native) -> h264 (libx264))
Press [q] to stop, [?] for help
frame=   61 fps=0.0 q=0.0 size=       0kB time=00:00:00.00 bitrate=N/A speed=   0x    frame=   72 fps=8.0 q=0.0 size=       0kB time=00:00:00.00 bitrate=N/A speed=   0x    frame=   77 fps=7.8 q=43.0 size=       1kB time=-00:00:00.01 bitrate=N/A speed=N/A    frame=   82 fps=6.9 q=46.0 size=       1kB time=00:00:00.08 bitrate=  72.7kbits/s speed=0.00679x    frame=   88 fps=7.0 q=49.0 size=       1kB time=00:00:00.20 bitrate=  29.3kbits/s speed=0.0161x    frame=   89 fps=6.8 q=50.0 size=       1kB time=00:00:00.22 bitrate=  26.6kbits/s speed=0.0168x    frame=   91 fps=6.2 q=49.0 size=       1kB time=00:00:00.26 bitrate=  22.6kbits/s speed=0.0176x    frame=   97 fps=6.1 q=48.0 size=       1kB time=00:00:00.38 bitrate=  15.5kbits/s speed=0.0238x    frame=  100 fps=5.7 q=45.0 size=       1kB time=00:00:00.44 bitrate=  13.4kbits/s speed=0.025x    frame=  105 fps=5.7 q=45.0 size=       1kB time=00:00:00.54 bitrate=  10.9kbits/s speed=0.0296x    frame=  106 fps=5.5 q=44.0 size=       1kB time=00:00:00.56 bitrate=  10.5kbits/s speed=0.0292x    frame=  108 fps=5.3 q=44.0 size=       1kB time=00:00:00.60 bitrate=   9.8kbits/s speed=0.0296x    frame=  113 fps=5.3 q=43.0 size=       1kB time=00:00:00.70 bitrate=   8.4kbits/s speed=0.033x    frame=  114 fps=5.1 q=43.0 size=       1kB time=00:00:00.72 bitrate=   8.2kbits/s speed=0.0324x    frame=  117 fps=5.0 q=43.0 size=       1kB time=00:00:00.78 bitrate=   7.5kbits/s speed=0.0335x    frame=  122 fps=5.0 q=43.0 size=       1kB time=00:00:00.88 bitrate=   6.7kbits/s speed=0.0359x    frame=  123 fps=4.8 q=43.0 size=       1kB time=00:00:00.90 bitrate=   6.5kbits/s speed=0.0352x    frame=  126 fps=4.8 q=42.0 size=       1kB time=00:00:00.96 bitrate=   6.1kbits/s speed=0.0364x    frame=  129 fps=4.7 q=42.0 size=       1kB time=00:00:01.02 bitrate=   5.8kbits/s speed=0.0373x    frame=  130 fps=4.6 q=42.0 size=       1kB time=00:00:01.04 bitrate=   5.7kbits/s speed=0.0371x    frame=  132 fps=4.5 q=42.0 size=       1kB time=00:00:01.08 bitrate=   5.4kbits/s speed=0.0366x    frame=  136 fps=4.5 q=42.0 size=       1kB time=00:00:01.16 bitrate=   5.1kbits/s speed=0.0382x    frame=  138 fps=4.3 q=42.0 size=       1kB time=00:00:01.20 bitrate=   4.9kbits/s speed=0.0377x    frame=  140 fps=4.2 q=42.0 size=       1kB time=00:00:01.24 bitrate=   4.7kbits/s speed=0.0377x    frame=  144 fps=4.2 q=42.0 size=       1kB time=00:00:01.32 bitrate=   4.5kbits/s speed=0.0389x    frame=  146 fps=4.1 q=41.0 size=       1kB time=00:00:01.36 bitrate=   4.3kbits/s speed=0.0385x    frame=  149 fps=4.1 q=41.0 size=       1kB time=00:00:01.42 bitrate=   4.1kbits/s speed=0.0388x    frame=  152 fps=4.1 q=41.0 size=       1kB time=00:00:01.48 bitrate=   4.0kbits/s speed=0.0398x    frame=  153 fps=4.0 q=41.0 size=       1kB time=00:00:01.50 bitrate=   3.9kbits/s speed=0.0397x    frame=  154 fps=4.0 q=41.0 size=       1kB time=00:00:01.52 bitrate=   3.9kbits/s speed=0.0396x    frame=  155 fps=3.9 q=41.0 size=       1kB time=00:00:01.54 bitrate=   3.8kbits/s speed=0.0391x    frame=  158 fps=3.9 q=41.0 size=       1kB time=00:00:01.60 bitrate=   3.7kbits/s speed=0.0397x    frame=  160 fps=3.9 q=41.0 size=       1kB time=00:00:01.64 bitrate=   3.6kbits/s speed=0.0401x    frame=  161 fps=3.9 q=41.0 size=       1kB time=00:00:01.66 bitrate=   3.5kbits/s speed=0.0398x    frame=  164 fps=3.8 q=41.0 size=       1kB time=00:00:01.72 bitrate=   3.4kbits/s speed=0.0399x    frame=  167 fps=3.7 q=41.0 size=       1kB time=00:00:01.78 bitrate=   3.3kbits/s speed=0.0398x    frame=  170 fps=3.7 q=41.0 size=       1kB time=00:00:01.84 bitrate=   3.2kbits/s speed=0.0405x    frame=  173 fps=3.7 q=41.0 size=       1kB time=00:00:01.90 bitrate=   3.1kbits/s speed=0.0404x    frame=  174 fps=3.7 q=41.0 size=       1kB time=00:00:01.92 bitrate=   3.1kbits/s speed=0.0404x    frame=  176 fps=3.6 q=41.0 size=       1kB time=00:00:01.96 bitrate=   3.0kbits/s speed=0.0406x    frame=  179 fps=3.6 q=41.0 size=       1kB time=00:00:02.02 bitrate=   2.9kbits/s speed=0.0412x    frame=  180 fps=3.6 q=41.0 size=       1kB time=00:00:02.04 bitrate=   2.9kbits/s speed=0.0409x    frame=  182 fps=3.6 q=41.0 size=       1kB time=00:00:02.08 bitrate=   2.8kbits/s speed=0.0407x    frame=  185 fps=3.5 q=41.0 size=       1kB time=00:00:02.14 bitrate=   2.8kbits/s speed=0.0409x    frame=  188 fps=3.6 q=40.0 size=       1kB time=00:00:02.20 bitrate=   2.7kbits/s speed=0.0416x    frame=  189 fps=3.5 q=40.0 size=       1kB time=00:00:02.22 bitrate=   2.7kbits/s speed=0.0414x    frame=  191 fps=3.4 q=40.0 size=       1kB time=00:00:02.26 bitrate=   2.6kbits/s speed=0.0408x    frame=  194 fps=3.5 q=40.0 size=       1kB time=00:00:02.32 bitrate=   2.5kbits/s speed=0.0413x    frame=  196 fps=3.5 q=40.0 size=       1kB time=00:00:02.36 bitrate=   2.5kbits/s speed=0.0416x    frame=  197 fps=3.4 q=40.0 size=       1kB time=00:00:02.38 bitrate=   2.5kbits/s speed=0.0415x    frame=  198 fps=3.4 q=40.0 size=       1kB time=00:00:02.40 bitrate=   2.5kbits/s speed=0.0412x    frame=  200 fps=3.4 q=40.0 size=       1kB time=00:00:02.44 bitrate=   2.4kbits/s speed=0.0414x    frame=  203 fps=3.4 q=40.0 size=       1kB time=00:00:02.50 bitrate=   2.4kbits/s speed=0.0417x    frame=  204 fps=3.4 q=40.0 size=       1kB time=00:00:02.52 bitrate=   2.3kbits/s speed=0.0415x    frame=  206 fps=3.4 q=40.0 size=       1kB time=00:00:02.56 bitrate=   2.3kbits/s speed=0.0417x    frame=  209 fps=3.4 q=40.0 size=       1kB time=00:00:02.62 bitrate=   2.2kbits/s speed=0.0422x    frame=  210 fps=3.3 q=40.0 size=       1kB time=00:00:02.64 bitrate=   2.2kbits/s speed=0.0415x    frame=  213 fps=3.3 q=40.0 size=       1kB time=00:00:02.70 bitrate=   2.2kbits/s speed=0.042x    frame=  216 fps=3.3 q=40.0 size=       1kB time=00:00:02.76 bitrate=   2.1kbits/s speed=0.0416x    frame=  219 fps=3.3 q=40.0 size=       1kB time=00:00:02.82 bitrate=   2.1kbits/s speed=0.0421x    frame=  221 fps=3.3 q=40.0 size=       1kB time=00:00:02.86 bitrate=   2.1kbits/s speed=0.0422x    frame=  222 fps=3.2 q=40.0 size=       1kB time=00:00:02.88 bitrate=   2.0kbits/s speed=0.0419x    frame=  226 fps=3.2 q=40.0 size=       1kB time=00:00:02.96 bitrate=   2.0kbits/s speed=0.0426x    frame=  228 fps=3.3 q=40.0 size=       1kB time=00:00:03.00 bitrate=   2.0kbits/s speed=0.0428x    frame=  229 fps=3.2 q=40.0 size=       1kB time=00:00:03.02 bitrate=   1.9kbits/s speed=0.0421x    frame=  234 fps=3.2 q=40.0 size=       1kB time=00:00:03.12 bitrate=   1.9kbits/s speed=0.043x    frame=  235 fps=3.2 q=40.0 size=       1kB time=00:00:03.14 bitrate=   1.9kbits/s speed=0.0424x    frame=  236 fps=3.2 q=40.0 size=       1kB time=00:00:03.16 bitrate=   1.9kbits/s speed=0.0424x    frame=  240 fps=3.2 q=40.0 size=       1kB time=00:00:03.24 bitrate=   1.8kbits/s speed=0.043x    frame=  241 fps=3.2 q=40.0 size=       1kB time=00:00:03.26 bitrate=   1.8kbits/s speed=0.0426x    frame=  243 fps=3.1 q=40.0 size=       1kB time=00:00:03.30 bitrate=   1.8kbits/s speed=0.0427x    frame=  248 fps=3.1 q=40.0 size=       1kB time=00:00:03.40 bitrate=   1.7kbits/s speed=0.0428x    frame=  252 fps=3.1 q=40.0 size=       1kB time=00:00:03.48 bitrate=   1.7kbits/s speed=0.0431x    frame=  254 fps=3.1 q=40.0 size=       1kB time=00:00:03.52 bitrate=   1.7kbits/s speed=0.0431x    frame=  255 fps=3.1 q=40.0 size=       1kB time=00:00:03.54 bitrate=   1.7kbits/s speed=0.0431x    frame=  258 fps=3.1 q=40.0 size=       1kB time=00:00:03.60 bitrate=   1.6kbits/s speed=0.0434x    frame=  261 fps=3.1 q=40.0 size=       1kB time=00:00:03.66 bitrate=   1.6kbits/s speed=0.0431x    frame=  264 fps=3.1 q=40.0 size=       1kB time=00:00:03.72 bitrate=   1.6kbits/s speed=0.0435x    frame=  267 fps=3.1 q=40.0 size=       1kB time=00:00:03.78 bitrate=   1.6kbits/s speed=0.0435x    frame=  269 fps=3.1 q=40.0 size=       1kB time=00:00:03.82 bitrate=   1.5kbits/s speed=0.0437x    frame=  270 fps=3.0 q=40.0 size=       1kB time=00:00:03.84 bitrate=   1.5kbits/s speed=0.0433x    frame=  273 fps=3.0 q=40.0 size=       1kB time=00:00:03.90 bitrate=   1.5kbits/s speed=0.0436x    frame=  276 fps=3.0 q=40.0 size=       1kB time=00:00:03.96 bitrate=   1.5kbits/s speed=0.0436x    frame=  277 fps=3.0 q=40.0 size=       1kB time=00:00:03.98 bitrate=   1.5kbits/s speed=0.0435x    frame=  279 fps=3.0 q=40.0 size=       1kB time=00:00:04.02 bitrate=   1.5kbits/s speed=0.0435x    frame=  281 fps=3.0 q=40.0 size=       1kB time=00:00:04.06 bitrate=   1.4kbits/s speed=0.0437x    frame=  283 fps=3.0 q=40.0 size=       1kB time=00:00:04.10 bitrate=   1.4kbits/s speed=0.0438x    frame=  285 fps=3.0 q=40.0 size=       1kB time=00:00:04.14 bitrate=   1.4kbits/s speed=0.0436x    frame=  286 fps=3.0 q=40.0 size=       1kB time=00:00:04.16 bitrate=   1.4kbits/s speed=0.0435x    frame=  289 fps=3.0 q=39.0 size=       1kB time=00:00:04.22 bitrate=   1.4kbits/s speed=0.0438x    frame=  291 fps=3.0 q=40.0 size=       1kB time=00:00:04.26 bitrate=   1.4kbits/s speed=0.0435x    frame=  296 fps=3.0 q=39.0 size=       1kB time=00:00:04.36 bitrate=   1.4kbits/s speed=0.0437x    frame=  297 fps=2.9 q=39.0 size=       1kB time=00:00:04.38 bitrate=   1.3kbits/s speed=0.0435x    frame=  302 fps=3.0 q=39.0 size=       1kB time=00:00:04.48 bitrate=   1.3kbits/s speed=0.0441x    frame=  303 fps=3.0 q=39.0 size=       1kB time=00:00:04.50 bitrate=   1.3kbits/s speed=0.044x    frame=  304 fps=2.9 q=40.0 size=       1kB time=00:00:04.52 bitrate=   1.3kbits/s speed=0.0436x    frame=  308 fps=2.9 q=39.0 size=       1kB time=00:00:04.60 bitrate=   1.3kbits/s speed=0.044x    frame=  310 fps=2.9 q=40.0 size=       1kB time=00:00:04.64 bitrate=   1.3kbits/s speed=0.0441x    frame=  311 fps=2.9 q=40.0 size=       1kB time=00:00:04.66 bitrate=   1.3kbits/s speed=0.0437x    frame=  313 fps=2.9 q=40.0 size=       1kB time=00:00:04.70 bitrate=   1.3kbits/s speed=0.0429x    frame=  318 fps=2.9 q=39.0 size=       1kB time=00:00:04.80 bitrate=   1.2kbits/s speed=0.0434x    frame=  319 fps=2.9 q=39.0 size=       1kB time=00:00:04.82 bitrate=   1.2kbits/s speed=0.0432x    frame=  324 fps=2.9 q=40.0 size=       1kB time=00:00:04.92 bitrate=   1.2kbits/s speed=0.0438x    frame=  325 fps=2.9 q=40.0 size=    1902kB time=00:00:04.94 bitrate=3153.7kbits/s speed=0.0436x    frame=  331 fps=2.9 q=40.0 size=    1902kB time=00:00:05.06 bitrate=3078.9kbits/s speed=0.044x    frame=  336 fps=2.9 q=41.0 size=    1902kB time=00:00:05.16 bitrate=3019.3kbits/s speed=0.0446x    frame=  337 fps=2.9 q=41.0 size=    1902kB time=00:00:05.18 bitrate=3007.6kbits/s speed=0.0446x    frame=  340 fps=2.9 q=41.0 size=    1902kB time=00:00:05.24 bitrate=2973.2kbits/s speed=0.0444x    frame=  345 fps=2.9 q=40.0 size=    1902kB time=00:00:05.34 bitrate=2917.5kbits/s speed=0.045x    frame=  347 fps=2.9 q=40.0 size=    1902kB time=00:00:05.38 bitrate=2895.8kbits/s speed=0.045x    frame=  349 fps=2.9 q=40.0 size=    1902kB time=00:00:05.42 bitrate=2874.5kbits/s speed=0.0448x    frame=  354 fps=2.9 q=40.0 size=    1902kB time=00:00:05.52 bitrate=2822.4kbits/s speed=0.0453x    frame=  355 fps=2.9 q=40.0 size=    1902kB time=00:00:05.54 bitrate=2812.2kbits/s speed=0.0452x    frame=  358 fps=2.9 q=40.0 size=    1902kB time=00:00:05.60 bitrate=2782.1kbits/s speed=0.0452x    frame=  363 fps=2.9 q=40.0 size=    1902kB time=00:00:05.70 bitrate=2733.3kbits/s speed=0.0456x    frame=  364 fps=2.9 q=40.0 size=    1902kB time=00:00:05.72 bitrate=2723.7kbits/s speed=0.0455x    frame=  365 fps=2.9 q=40.0 size=    1902kB time=00:00:05.74 bitrate=2714.2kbits/s speed=0.0455x    frame=  367 fps=2.9 q=40.0 size=    1902kB time=00:00:05.78 bitrate=2695.5kbits/s speed=0.0456x    frame=  371 fps=2.9 q=40.0 size=    1902kB time=00:00:05.86 bitrate=2658.7kbits/s speed=0.046x    frame=  372 fps=2.9 q=40.0 size=    1902kB time=00:00:05.88 bitrate=2649.6kbits/s speed=0.0457x    frame=  375 fps=2.9 q=40.0 size=    1902kB time=00:00:05.94 bitrate=2622.9kbits/s speed=0.0459x    frame=  377 fps=2.9 q=40.0 size=    1902kB time=00:00:05.98 bitrate=2605.3kbits/s speed=0.0458x    frame=  378 fps=2.9 q=40.0 size=    1902kB time=00:00:06.00 bitrate=2596.6kbits/s speed=0.0456x    frame=  379 fps=2.9 q=40.0 size=    1902kB time=00:00:06.02 bitrate=2588.0kbits/s speed=0.0456x    frame=  383 fps=2.9 q=40.0 size=    1902kB time=00:00:06.10 bitrate=2554.1kbits/s speed=0.0457x    frame=  385 fps=2.9 q=40.0 size=    1902kB time=00:00:06.14 bitrate=2537.5kbits/s speed=0.0456x    frame=  388 fps=2.9 q=40.0 size=    1902kB time=00:00:06.20 bitrate=2512.9kbits/s speed=0.0458x    frame=  389 fps=2.9 q=40.0 size=    1902kB time=00:00:06.22 bitrate=2504.8kbits/s speed=0.0458x    frame=  391 fps=2.9 q=40.0 size=    1902kB time=00:00:06.26 bitrate=2488.8kbits/s speed=0.0459x    frame=  392 fps=2.8 q=40.0 size=    1902kB time=00:00:06.28 bitrate=2480.9kbits/s speed=0.0456x    frame=  395 fps=2.9 q=40.0 size=    1902kB time=00:00:06.34 bitrate=2457.4kbits/s speed=0.0459x    frame=  397 fps=2.9 q=40.0 size=    1902kB time=00:00:06.38 bitrate=2442.0kbits/s speed=0.0459x    frame=  398 fps=2.8 q=40.0 size=    1902kB time=00:00:06.40 bitrate=2434.4kbits/s speed=0.0457x    frame=  399 fps=2.8 q=40.0 size=    1902kB time=00:00:06.42 bitrate=2426.8kbits/s speed=0.0456x    frame=  401 fps=2.8 q=40.0 size=    1902kB time=00:00:06.46 bitrate=2411.8kbits/s speed=0.0456x    frame=  404 fps=2.8 q=40.0 size=    1902kB time=00:00:06.52 bitrate=2389.6kbits/s speed=0.0458x    frame=  405 fps=2.8 q=40.0 size=    1902kB time=00:00:06.54 bitrate=2382.3kbits/s speed=0.0457x    frame=  407 fps=2.8 q=40.0 size=    1902kB time=00:00:06.58 bitrate=2367.8kbits/s speed=0.0457x    frame=  408 fps=2.8 q=40.0 size=    1902kB time=00:00:06.60 bitrate=2360.6kbits/s speed=0.0457x    frame=  410 fps=2.8 q=40.0 size=    1902kB time=00:00:06.64 bitrate=2346.4kbits/s speed=0.0456x    frame=  415 fps=2.8 q=40.0 size=    1902kB time=00:00:06.74 bitrate=2311.6kbits/s speed=0.046x    frame=  416 fps=2.8 q=40.0 size=    1902kB time=00:00:06.76 bitrate=2304.8kbits/s speed=0.0456x    frame=  419 fps=2.8 q=40.0 size=    1902kB time=00:00:06.82 bitrate=2284.5kbits/s speed=0.0456x    frame=  422 fps=2.8 q=40.0 size=    1902kB time=00:00:06.88 bitrate=2264.6kbits/s speed=0.0458x    frame=  423 fps=2.8 q=40.0 size=    1902kB time=00:00:06.90 bitrate=2258.0kbits/s speed=0.0457x    frame=  425 fps=2.8 q=40.0 size=    1902kB time=00:00:06.94 bitrate=2245.0kbits/s speed=0.0455x    frame=  428 fps=2.8 q=40.0 size=    1902kB time=00:00:07.00 bitrate=2225.8kbits/s speed=0.0456x    frame=  431 fps=2.8 q=40.0 size=    1902kB time=00:00:07.06 bitrate=2206.8kbits/s speed=0.0457x    frame=  432 fps=2.8 q=40.0 size=    1902kB time=00:00:07.08 bitrate=2200.6kbits/s speed=0.0455x    frame=  434 fps=2.8 q=40.0 size=    1902kB time=00:00:07.12 bitrate=2188.2kbits/s speed=0.0456x    frame=  437 fps=2.8 q=40.0 size=    1902kB time=00:00:07.18 bitrate=2170.0kbits/s speed=0.0454x    frame=  441 fps=2.8 q=40.0 size=    1902kB time=00:00:07.26 bitrate=2146.1kbits/s speed=0.0456x    frame=  443 fps=2.8 q=40.0 size=    1902kB time=00:00:07.30 bitrate=2134.3kbits/s speed=0.0455x    frame=  446 fps=2.8 q=40.0 size=    1902kB time=00:00:07.36 bitrate=2116.9kbits/s speed=0.0455x    frame=  449 fps=2.8 q=40.0 size=    1902kB time=00:00:07.42 bitrate=2099.8kbits/s speed=0.0456x    frame=  450 fps=2.7 q=40.0 size=    1902kB time=00:00:07.44 bitrate=2094.1kbits/s speed=0.0454x    frame=  453 fps=2.7 q=40.0 size=    1902kB time=00:00:07.50 bitrate=2077.4kbits/s speed=0.0454x    frame=  456 fps=2.8 q=40.0 size=    1902kB time=00:00:07.56 bitrate=2060.9kbits/s speed=0.0456x    frame=  458 fps=2.7 q=40.0 size=    1902kB time=00:00:07.60 bitrate=2050.1kbits/s speed=0.0455x    frame=  459 fps=2.7 q=40.0 size=    1902kB time=00:00:07.62 bitrate=2044.7kbits/s speed=0.0454x    frame=  462 fps=2.7 q=40.0 size=    1902kB time=00:00:07.68 bitrate=2028.7kbits/s speed=0.0456x    frame=  464 fps=2.7 q=40.0 size=    1902kB time=00:00:07.72 bitrate=2018.2kbits/s speed=0.0454x    frame=  467 fps=2.7 q=40.0 size=    1902kB time=00:00:07.78 bitrate=2002.6kbits/s speed=0.0456x    frame=  469 fps=2.7 q=40.0 size=    1902kB time=00:00:07.82 bitrate=1992.4kbits/s speed=0.0456x    frame=  470 fps=2.7 q=40.0 size=    1902kB time=00:00:07.84 bitrate=1987.3kbits/s speed=0.0454x    frame=  473 fps=2.7 q=40.0 size=    1902kB time=00:00:07.90 bitrate=1972.2kbits/s speed=0.0456x    frame=  475 fps=2.7 q=40.0 size=    1902kB time=00:00:07.94 bitrate=1962.3kbits/s speed=0.0456x    frame=  476 fps=2.7 q=40.0 size=    1902kB time=00:00:07.96 bitrate=1957.4kbits/s speed=0.0454x    frame=  480 fps=2.7 q=40.0 size=    1902kB time=00:00:08.04 bitrate=1937.9kbits/s speed=0.0456x    frame=  481 fps=2.7 q=40.0 size=    1902kB time=00:00:08.06 bitrate=1933.1kbits/s speed=0.0455x    frame=  482 fps=2.7 q=40.0 size=    1902kB time=00:00:08.08 bitrate=1928.3kbits/s speed=0.0454x    frame=  483 fps=2.7 q=40.0 size=    1902kB time=00:00:08.10 bitrate=1923.5kbits/s speed=0.0453x    frame=  487 fps=2.7 q=40.0 size=    1902kB time=00:00:08.18 bitrate=1904.7kbits/s speed=0.0456x    frame=  489 fps=2.7 q=40.0 size=    1902kB time=00:00:08.22 bitrate=1895.4kbits/s speed=0.0452x    frame=  495 fps=2.7 q=40.0 size=    1902kB time=00:00:08.34 bitrate=1868.2kbits/s speed=0.0456x    frame=  496 fps=2.7 q=40.0 size=    1902kB time=00:00:08.36 bitrate=1863.7kbits/s speed=0.0454x    frame=  499 fps=2.7 q=40.0 size=    1902kB time=00:00:08.42 bitrate=1850.4kbits/s speed=0.0456x    frame=  500 fps=2.3 q=-1.0 Lsize=    4260kB time=00:00:09.94 bitrate=3510.5kbits/s speed=0.046x    
video:4256kB audio:0kB subtitle:0kB other streams:0kB global headers:0kB muxing overhead: 0.101358%
bench: utime=801.288s
bench: maxrss=3675892kB
[libx264 @ 0x2e5c120] frame I:3     Avg QP:37.84  size:130528
[libx264 @ 0x2e5c120] frame P:63    Avg QP:39.77  size: 18486
[libx264 @ 0x2e5c120] frame B:434   Avg QP:40.92  size:  6454
[libx264 @ 0x2e5c120] consecutive B-frames:  0.8%  0.0%  0.0%  1.6%  4.0%  3.6% 11.2% 17.6% 61.2%
[libx264 @ 0x2e5c120] mb I  I16..4: 30.4% 63.8%  5.8%
[libx264 @ 0x2e5c120] mb P  I16..4:  0.1%  0.2%  0.0%  P16..4: 22.5%  1.0%  3.7%  0.0%  0.0%    skip:72.5%
[libx264 @ 0x2e5c120] mb B  I16..4:  0.0%  0.0%  0.0%  B16..8: 26.2%  0.1%  0.0%  direct: 0.0%  skip:73.7%  L0:46.3% L1:53.7% BI: 0.0%
[libx264 @ 0x2e5c120] final ratefactor: 32.59
[libx264 @ 0x2e5c120] 8x8 transform intra:63.4% inter:88.1%
[libx264 @ 0x2e5c120] direct mvs  spatial:99.1% temporal:0.9%
[libx264 @ 0x2e5c120] coded y,uvDC,uvAC intra: 35.3% 26.0% 5.8% inter: 0.3% 0.3% 0.0%
[libx264 @ 0x2e5c120] i16 v,h,dc,p:  9% 24%  2% 66%
[libx264 @ 0x2e5c120] i8 v,h,dc,ddl,ddr,vr,hd,vl,hu:  8%  4% 23% 10% 15%  9% 15%  6% 10%
[libx264 @ 0x2e5c120] i4 v,h,dc,ddl,ddr,vr,hd,vl,hu:  4%  4%  6% 14% 18% 11% 19%  8% 15%
[libx264 @ 0x2e5c120] i8c dc,h,v,p: 14% 68% 10%  8%
[libx264 @ 0x2e5c120] Weighted P-Frames: Y:3.2% UV:1.6%
[libx264 @ 0x2e5c120] ref P L0: 69.4% 18.9%  6.4%  1.4%  1.0%  0.8%  0.7%  0.2%  0.2%  0.2%  0.2%  0.2%  0.1%  0.1%  0.1%  0.1%
[libx264 @ 0x2e5c120] ref B L0: 94.2%  3.4%  1.6%  0.2%  0.2%  0.1%  0.1%  0.0%  0.0%  0.0%  0.0%  0.0%  0.0%  0.0%  0.0%
[libx264 @ 0x2e5c120] ref B L1: 98.2%  1.8%
[libx264 @ 0x2e5c120] kb/s:3485.69
